# xmcd CD database file
#
# Track frame offsets:
#	150
#	18417
#	35970
#
# Disc length: 941 seconds
#
# Revision: 0
# Processed by: cddbd v1.5PL3 Copyright (c) Steve Scherf et al.
# Submitted via: CDex 1.50
#
DISCID=2103ab03
DTITLE=ゆず - アゲイン２
DYEAR=2002
DGENRE=Folk
TTITLE0=アゲイン２
TTITLE1=みぞれ雪
TTITLE2=手暗がりの下
EXTD=YEAR: 2002
EXTT0=
EXTT1=
EXTT2=
PLAYORDER=
